<?xml version="1.0" encoding="UTF-8" standalone="no"?>
<!-- Created with Inkscape (http://www.inkscape.org/) -->

<svg
   width="210mm"
   height="297mm"
   viewBox="0 0 210 297"
   version="1.1"
   id="svg69309"
   inkscape:version="1.1.1 (c3084ef, 2021-09-22)"
   sodipodi:docname="kinisi_logo.svg"
   xmlns:inkscape="http://www.inkscape.org/namespaces/inkscape"
   xmlns:sodipodi="http://sodipodi.sourceforge.net/DTD/sodipodi-0.dtd"
   xmlns="http://www.w3.org/2000/svg"
   xmlns:svg="http://www.w3.org/2000/svg">
  <sodipodi:namedview
     id="namedview69311"
     pagecolor="#ffffff"
     bordercolor="#666666"
     borderopacity="1.0"
     inkscape:pageshadow="2"
     inkscape:pageopacity="0.0"
     inkscape:pagecheckerboard="0"
     inkscape:document-units="mm"
     showgrid="false"
     inkscape:zoom="0.80087682"
     inkscape:cx="-95.520307"
     inkscape:cy="591.227"
     inkscape:window-width="1312"
     inkscape:window-height="1081"
     inkscape:window-x="0"
     inkscape:window-y="478"
     inkscape:window-maximized="0"
     inkscape:current-layer="layer1" />
  <defs
     id="defs69306" />
  <g
     inkscape:label="Layer 1"
     inkscape:groupmode="layer"
     id="layer1">
    <path
       d="m 23.55313,107.11168 h 0.073 c 0.43912,-0.62215 1.06098,-1.39038 1.57313,-2.01196 l 5.19432,-6.1092 h 3.87783 l -6.84049,7.2796 7.79147,10.42557 h -3.91421 l -6.10892,-8.48666 -1.64617,1.82893 v 6.65773 H 20.37045 V 90.72327 h 3.18264 z"
       style="fill:none;fill-opacity:1;stroke:#000000;stroke-width:0.818;stroke-linecap:butt;stroke-linejoin:miter;stroke-miterlimit:100;stroke-dasharray:none;stroke-opacity:1"
       id="path67392" />
    <g
       id="g67394"
       transform="matrix(0.28870117,0,0,-0.28870117,41.73369,94.01539)"
       style="fill:#000000;fill-opacity:1;stroke:none;stroke-width:2.83338;stroke-miterlimit:100;stroke-dasharray:none;stroke-opacity:1">
      <path
         d="m 0,0 c 0.127,-3.802 -2.661,-6.843 -7.095,-6.843 -3.928,0 -6.716,3.041 -6.716,6.843 0,3.927 2.915,6.969 6.969,6.969 C -2.661,6.969 0,3.927 0,0"
         style="fill:#000000;fill-opacity:1;fill-rule:nonzero;stroke:none;stroke-width:2.83338;stroke-miterlimit:100;stroke-dasharray:none;stroke-opacity:1"
         id="path67396" />
    </g>
    <g
       id="g67398"
       transform="matrix(0.28870117,0,0,-0.28870117,41.73369,94.01539)"
       style="fill:none;fill-opacity:1;stroke:none;stroke-width:2.83338;stroke-miterlimit:100;stroke-dasharray:none;stroke-opacity:1">
      <path
         d="m 0,0 c 0.127,-3.802 -2.661,-6.843 -7.095,-6.843 -3.928,0 -6.716,3.041 -6.716,6.843 0,3.927 2.915,6.969 6.969,6.969 C -2.661,6.969 0,3.927 0,0 Z"
         style="fill:none;fill-opacity:1;stroke:none;stroke-width:2.83338;stroke-linecap:butt;stroke-linejoin:miter;stroke-miterlimit:100;stroke-dasharray:none;stroke-opacity:1"
         id="path67400" />
    </g>
    <path
       d="m 38.14891,98.99047 h 3.21931 v 17.70517 h -3.21931 z"
       style="fill:none;fill-opacity:1;stroke:#000000;stroke-width:0.818;stroke-linecap:butt;stroke-linejoin:miter;stroke-miterlimit:100;stroke-dasharray:none;stroke-opacity:1"
       id="path67402" />
    <g
       id="g67404"
       transform="matrix(0.28870117,0,0,-0.28870117,70.59633,94.01539)"
       style="fill:#000000;fill-opacity:1;stroke:none;stroke-width:2.83338;stroke-miterlimit:100;stroke-dasharray:none;stroke-opacity:1">
      <path
         d="m 0,0 c 0.127,-3.802 -2.661,-6.843 -7.096,-6.843 -3.928,0 -6.716,3.041 -6.716,6.843 0,3.927 2.915,6.969 6.969,6.969 C -2.661,6.969 0,3.927 0,0"
         style="fill:#000000;fill-opacity:1;fill-rule:nonzero;stroke:none;stroke-width:2.83338;stroke-miterlimit:100;stroke-dasharray:none;stroke-opacity:1"
         id="path67406" />
    </g>
    <g
       id="g67408"
       transform="matrix(0.28870117,0,0,-0.28870117,70.59633,94.01539)"
       style="fill:none;fill-opacity:1;stroke:none;stroke-width:2.83338;stroke-miterlimit:100;stroke-dasharray:none;stroke-opacity:1">
      <path
         d="m 0,0 c 0.127,-3.802 -2.661,-6.843 -7.096,-6.843 -3.928,0 -6.716,3.041 -6.716,6.843 0,3.927 2.915,6.969 6.969,6.969 C -2.661,6.969 0,3.927 0,0 Z"
         style="fill:none;fill-opacity:1;stroke:none;stroke-width:2.83338;stroke-linecap:butt;stroke-linejoin:miter;stroke-miterlimit:100;stroke-dasharray:none;stroke-opacity:1"
         id="path67410" />
    </g>
    <path
       d="m 67.01123,98.99047 h 3.21931 v 17.70517 h -3.21931 z"
       style="fill:none;fill-opacity:1;stroke:#000000;stroke-width:0.818;stroke-linecap:butt;stroke-linejoin:miter;stroke-miterlimit:100;stroke-dasharray:none;stroke-opacity:1"
       id="path67412" />
    <g
       id="g67414"
       transform="matrix(0.28870117,0,0,-0.28870117,75.13211,113.4032)"
       style="fill:none;fill-opacity:1;stroke:#000000;stroke-width:2.83338;stroke-miterlimit:100;stroke-dasharray:none;stroke-opacity:1">
      <path
         d="m 0,0 c 3.295,-2.155 9.123,-4.436 14.699,-4.436 8.11,0 11.909,4.055 11.909,9.123 0,5.322 -3.168,8.236 -11.403,11.278 -11.023,3.928 -16.219,10.01 -16.219,17.359 0,9.883 7.983,17.992 21.161,17.992 6.209,0 11.658,-1.773 15.078,-3.8 l -2.787,-8.11 c -2.408,1.52 -6.842,3.547 -12.545,3.547 -6.588,0 -10.263,-3.801 -10.263,-8.363 0,-5.068 3.675,-7.348 11.656,-10.389 10.645,-4.055 16.093,-9.377 16.093,-18.5 0,-10.77 -8.361,-18.373 -22.935,-18.373 -6.715,0 -12.923,1.648 -17.231,4.182 z"
         style="fill:none;fill-opacity:1;stroke:#000000;stroke-width:2.83338;stroke-linecap:butt;stroke-linejoin:miter;stroke-miterlimit:100;stroke-dasharray:none;stroke-opacity:1"
         id="path67416" />
    </g>
    <g
       id="g67418"
       transform="matrix(0.28870117,0,0,-0.28870117,93.64195,94.01539)"
       style="stroke-width:2.83338;stroke-miterlimit:100;stroke-dasharray:none">
      <path
         d="m 0,0 c 0.126,-3.802 -2.661,-6.843 -7.097,-6.843 -3.926,0 -6.716,3.041 -6.716,6.843 0,3.927 2.917,6.969 6.971,6.969 C -2.661,6.969 0,3.927 0,0"
         style="fill:#1e3b68;fill-opacity:1;fill-rule:nonzero;stroke:none;stroke-width:2.83338;stroke-miterlimit:100;stroke-dasharray:none"
         id="path67420" />
    </g>
    <g
       id="g67422"
       transform="matrix(0.28870117,0,0,-0.28870117,93.64195,94.01539)"
       style="fill:#000000;fill-opacity:1;stroke:none;stroke-width:2.83338;stroke-miterlimit:100;stroke-dasharray:none;stroke-opacity:1">
      <path
         d="m 0,0 c 0.126,-3.802 -2.661,-6.843 -7.097,-6.843 -3.926,0 -6.716,3.041 -6.716,6.843 0,3.927 2.917,6.969 6.971,6.969 C -2.661,6.969 0,3.927 0,0 Z"
         style="fill:#000000;fill-opacity:1;stroke:none;stroke-width:2.83338;stroke-linecap:butt;stroke-linejoin:miter;stroke-miterlimit:100;stroke-dasharray:none;stroke-opacity:1"
         id="path67424" />
    </g>
    <path
       d="m 90.05709,98.99047 h 3.21873 v 17.70517 h -3.21873 z"
       style="fill:none;fill-opacity:1;stroke:#000000;stroke-width:0.818;stroke-linecap:butt;stroke-linejoin:miter;stroke-miterlimit:100;stroke-dasharray:none;stroke-opacity:1"
       id="path67426" />
    <g
       id="g67428"
       transform="matrix(0.28870117,0,0,-0.28870117,42.70468,91.65209)"
       style="fill:none;fill-opacity:1;stroke:#000000;stroke-width:2.83338;stroke-miterlimit:100;stroke-dasharray:none;stroke-opacity:1">
      <path
         d="M 0,0 C 13.584,8.827 43.109,11.801 64.783,5.087"
         style="fill:none;fill-opacity:1;stroke:#000000;stroke-width:2.83338;stroke-linecap:butt;stroke-linejoin:miter;stroke-miterlimit:100;stroke-dasharray:none;stroke-opacity:1"
         id="path67430" />
    </g>
    <g
       id="g67432"
       transform="matrix(0.28870117,0,0,-0.28870117,59.60963,91.28286)"
       style="fill:#000000;fill-opacity:1;stroke:none;stroke-width:2.83338;stroke-miterlimit:100;stroke-dasharray:none;stroke-opacity:1">
      <path
         d="M 0,0 22.052,-4.188 5.048,10.467 Z"
         style="fill:#000000;fill-opacity:1;fill-rule:nonzero;stroke:none;stroke-width:2.83338;stroke-miterlimit:100;stroke-dasharray:none;stroke-opacity:1"
         id="path67434" />
    </g>
    <g
       id="g67436"
       transform="matrix(0.28870117,0,0,-0.28870117,71.01274,91.65209)"
       style="fill:none;fill-opacity:1;stroke:#000000;stroke-width:2.83338;stroke-miterlimit:100;stroke-dasharray:none;stroke-opacity:1">
      <path
         d="M 0,0 C 13.021,8.991 30.754,11.592 46.634,5.907"
         style="fill:none;fill-opacity:1;stroke:#000000;stroke-width:2.83338;stroke-linecap:butt;stroke-linejoin:miter;stroke-miterlimit:100;stroke-dasharray:none;stroke-opacity:1"
         id="path67438" />
    </g>
    <g
       id="g67440"
       transform="matrix(0.28870117,0,0,-0.28870117,82.61747,90.96188)"
       style="fill:#000000;fill-opacity:1;stroke:none;stroke-width:2.83338;stroke-miterlimit:100;stroke-dasharray:none;stroke-opacity:1">
      <path
         d="M 0,0 21.811,-5.3 5.572,10.198 Z"
         style="fill:#000000;fill-opacity:1;fill-rule:nonzero;stroke:none;stroke-width:2.83338;stroke-miterlimit:100;stroke-dasharray:none;stroke-opacity:1"
         id="path67442" />
    </g>
    <g
       id="g67444"
       transform="matrix(0.28870117,0,0,-0.28870117,43.98099,116.69564)"
       style="fill:none;fill-opacity:1;stroke:#5378b0;stroke-width:2.83338;stroke-miterlimit:100;stroke-dasharray:none;stroke-opacity:1">
      <path
         d="M 0,0 C 26.941,0 28.654,61.327 38.275,61.327 47.897,61.327 47.905,0 71.766,0"
         style="fill:none;fill-opacity:1;stroke:#5378b0;stroke-width:2.83338;stroke-linecap:butt;stroke-linejoin:miter;stroke-miterlimit:100;stroke-dasharray:none;stroke-opacity:1"
         id="path67446" />
    </g>
  </g>
</svg>
