<?xml version="1.0" encoding="utf-8" standalone="no"?>
<!DOCTYPE svg PUBLIC "-//W3C//DTD SVG 1.1//EN"
  "http://www.w3.org/Graphics/SVG/1.1/DTD/svg11.dtd">
<svg xmlns:xlink="http://www.w3.org/1999/xlink" width="311.61592pt" height="195.6145pt" viewBox="0 0 311.61592 195.6145" xmlns="http://www.w3.org/2000/svg" version="1.1">
 <metadata>
  <rdf:RDF xmlns:dc="http://purl.org/dc/elements/1.1/" xmlns:cc="http://creativecommons.org/ns#" xmlns:rdf="http://www.w3.org/1999/02/22-rdf-syntax-ns#">
   <cc:Work>
    <dc:type rdf:resource="http://purl.org/dc/dcmitype/StillImage"/>
    <dc:date>2022-08-08T09:19:10.420829</dc:date>
    <dc:format>image/svg+xml</dc:format>
    <dc:creator>
     <cc:Agent>
      <dc:title>Matplotlib v3.5.2, https://matplotlib.org/</dc:title>
     </cc:Agent>
    </dc:creator>
   </cc:Work>
  </rdf:RDF>
 </metadata>
 <defs>
  <style type="text/css">*{stroke-linejoin: round; stroke-linecap: butt}</style>
 </defs>
 <g id="figure_1">
  <g id="patch_1">
   <path d="M 0 195.6145 
L 311.61592 195.6145 
L 311.61592 0 
L 0 0 
z
" style="fill: #ffffff"/>
  </g>
  <g id="axes_1">
   <g id="patch_2">
    <path d="M 38.9025 73.11825 
L 146.773337 73.11825 
L 146.773337 35.91392 
L 38.9025 35.91392 
z
" style="fill: #ffffff"/>
   </g>
   <g id="matplotlib.axis_1">
    <g id="xtick_1">
     <g id="line2d_1">
      <defs>
       <path id="maeebdc2295" d="M 0 0 
L 0 3.5 
" style="stroke: #161616; stroke-width: 0.8"/>
      </defs>
      <g>
       <use xlink:href="#maeebdc2295" x="71.163769" y="73.11825" style="fill: #161616; stroke: #161616; stroke-width: 0.8"/>
      </g>
     </g>
     <g id="text_1">
      <!-- 0.16 -->
      <g style="fill: #161616" transform="translate(62.257519 84.697)scale(0.08 -0.08)">
       <defs>
        <path id="DejaVuSans-30" d="M 2034 4250 
Q 1547 4250 1301 3770 
Q 1056 3291 1056 2328 
Q 1056 1369 1301 889 
Q 1547 409 2034 409 
Q 2525 409 2770 889 
Q 3016 1369 3016 2328 
Q 3016 3291 2770 3770 
Q 2525 4250 2034 4250 
z
M 2034 4750 
Q 2819 4750 3233 4129 
Q 3647 3509 3647 2328 
Q 3647 1150 3233 529 
Q 2819 -91 2034 -91 
Q 1250 -91 836 529 
Q 422 1150 422 2328 
Q 422 3509 836 4129 
Q 1250 4750 2034 4750 
z
" transform="scale(0.015625)"/>
        <path id="DejaVuSans-2e" d="M 684 794 
L 1344 794 
L 1344 0 
L 684 0 
L 684 794 
z
" transform="scale(0.015625)"/>
        <path id="DejaVuSans-31" d="M 794 531 
L 1825 531 
L 1825 4091 
L 703 3866 
L 703 4441 
L 1819 4666 
L 2450 4666 
L 2450 531 
L 3481 531 
L 3481 0 
L 794 0 
L 794 531 
z
" transform="scale(0.015625)"/>
        <path id="DejaVuSans-36" d="M 2113 2584 
Q 1688 2584 1439 2293 
Q 1191 2003 1191 1497 
Q 1191 994 1439 701 
Q 1688 409 2113 409 
Q 2538 409 2786 701 
Q 3034 994 3034 1497 
Q 3034 2003 2786 2293 
Q 2538 2584 2113 2584 
z
M 3366 4563 
L 3366 3988 
Q 3128 4100 2886 4159 
Q 2644 4219 2406 4219 
Q 1781 4219 1451 3797 
Q 1122 3375 1075 2522 
Q 1259 2794 1537 2939 
Q 1816 3084 2150 3084 
Q 2853 3084 3261 2657 
Q 3669 2231 3669 1497 
Q 3669 778 3244 343 
Q 2819 -91 2113 -91 
Q 1303 -91 875 529 
Q 447 1150 447 2328 
Q 447 3434 972 4092 
Q 1497 4750 2381 4750 
Q 2619 4750 2861 4703 
Q 3103 4656 3366 4563 
z
" transform="scale(0.015625)"/>
       </defs>
       <use xlink:href="#DejaVuSans-30"/>
       <use xlink:href="#DejaVuSans-2e" x="63.623047"/>
       <use xlink:href="#DejaVuSans-31" x="95.410156"/>
       <use xlink:href="#DejaVuSans-36" x="159.033203"/>
      </g>
     </g>
    </g>
    <g id="xtick_2">
     <g id="line2d_2">
      <g>
       <use xlink:href="#maeebdc2295" x="105.088024" y="73.11825" style="fill: #161616; stroke: #161616; stroke-width: 0.8"/>
      </g>
     </g>
     <g id="text_2">
      <!-- 0.17 -->
      <g style="fill: #161616" transform="translate(96.181774 84.697)scale(0.08 -0.08)">
       <defs>
        <path id="DejaVuSans-37" d="M 525 4666 
L 3525 4666 
L 3525 4397 
L 1831 0 
L 1172 0 
L 2766 4134 
L 525 4134 
L 525 4666 
z
" transform="scale(0.015625)"/>
       </defs>
       <use xlink:href="#DejaVuSans-30"/>
       <use xlink:href="#DejaVuSans-2e" x="63.623047"/>
       <use xlink:href="#DejaVuSans-31" x="95.410156"/>
       <use xlink:href="#DejaVuSans-37" x="159.033203"/>
      </g>
     </g>
    </g>
    <g id="xtick_3">
     <g id="line2d_3">
      <g>
       <use xlink:href="#maeebdc2295" x="139.012279" y="73.11825" style="fill: #161616; stroke: #161616; stroke-width: 0.8"/>
      </g>
     </g>
     <g id="text_3">
      <!-- 0.18 -->
      <g style="fill: #161616" transform="translate(130.106029 84.697)scale(0.08 -0.08)">
       <defs>
        <path id="DejaVuSans-38" d="M 2034 2216 
Q 1584 2216 1326 1975 
Q 1069 1734 1069 1313 
Q 1069 891 1326 650 
Q 1584 409 2034 409 
Q 2484 409 2743 651 
Q 3003 894 3003 1313 
Q 3003 1734 2745 1975 
Q 2488 2216 2034 2216 
z
M 1403 2484 
Q 997 2584 770 2862 
Q 544 3141 544 3541 
Q 544 4100 942 4425 
Q 1341 4750 2034 4750 
Q 2731 4750 3128 4425 
Q 3525 4100 3525 3541 
Q 3525 3141 3298 2862 
Q 3072 2584 2669 2484 
Q 3125 2378 3379 2068 
Q 3634 1759 3634 1313 
Q 3634 634 3220 271 
Q 2806 -91 2034 -91 
Q 1263 -91 848 271 
Q 434 634 434 1313 
Q 434 1759 690 2068 
Q 947 2378 1403 2484 
z
M 1172 3481 
Q 1172 3119 1398 2916 
Q 1625 2713 2034 2713 
Q 2441 2713 2670 2916 
Q 2900 3119 2900 3481 
Q 2900 3844 2670 4047 
Q 2441 4250 2034 4250 
Q 1625 4250 1398 4047 
Q 1172 3844 1172 3481 
z
" transform="scale(0.015625)"/>
       </defs>
       <use xlink:href="#DejaVuSans-30"/>
       <use xlink:href="#DejaVuSans-2e" x="63.623047"/>
       <use xlink:href="#DejaVuSans-31" x="95.410156"/>
       <use xlink:href="#DejaVuSans-38" x="159.033203"/>
      </g>
     </g>
    </g>
    <g id="text_4">
     <!-- $\langle \hat{D} \rangle$/m$^2$s$^{-1}$ -->
     <g style="fill: #161616" transform="translate(73.077918 97.617)scale(0.08 -0.08)">
      <defs>
       <path id="DejaVuSans-27e8" d="M 572 2006 
L 1453 4856 
L 1984 4856 
L 1103 2006 
L 1984 -844 
L 1453 -844 
L 572 2006 
z
" transform="scale(0.015625)"/>
       <path id="DejaVuSans-302" d="M -1831 5119 
L -1369 5119 
L -603 3944 
L -1038 3944 
L -1600 4709 
L -2163 3944 
L -2597 3944 
L -1831 5119 
z
M -1600 3584 
L -1600 3584 
z
" transform="scale(0.015625)"/>
       <path id="DejaVuSans-Oblique-44" d="M 1081 4666 
L 2438 4666 
Q 3519 4666 4070 4208 
Q 4622 3750 4622 2847 
Q 4622 2250 4412 1698 
Q 4203 1147 3834 769 
Q 3463 381 2891 190 
Q 2319 0 1538 0 
L 172 0 
L 1081 4666 
z
M 1613 4147 
L 909 519 
L 1734 519 
Q 2794 519 3375 1128 
Q 3956 1738 3956 2847 
Q 3956 3519 3581 3833 
Q 3206 4147 2406 4147 
L 1613 4147 
z
" transform="scale(0.015625)"/>
       <path id="DejaVuSans-27e9" d="M 1925 2006 
L 1044 -844 
L 513 -844 
L 1394 2006 
L 513 4856 
L 1044 4856 
L 1925 2006 
z
" transform="scale(0.015625)"/>
       <path id="DejaVuSans-2f" d="M 1625 4666 
L 2156 4666 
L 531 -594 
L 0 -594 
L 1625 4666 
z
" transform="scale(0.015625)"/>
       <path id="DejaVuSans-6d" d="M 3328 2828 
Q 3544 3216 3844 3400 
Q 4144 3584 4550 3584 
Q 5097 3584 5394 3201 
Q 5691 2819 5691 2113 
L 5691 0 
L 5113 0 
L 5113 2094 
Q 5113 2597 4934 2840 
Q 4756 3084 4391 3084 
Q 3944 3084 3684 2787 
Q 3425 2491 3425 1978 
L 3425 0 
L 2847 0 
L 2847 2094 
Q 2847 2600 2669 2842 
Q 2491 3084 2119 3084 
Q 1678 3084 1418 2786 
Q 1159 2488 1159 1978 
L 1159 0 
L 581 0 
L 581 3500 
L 1159 3500 
L 1159 2956 
Q 1356 3278 1631 3431 
Q 1906 3584 2284 3584 
Q 2666 3584 2933 3390 
Q 3200 3197 3328 2828 
z
" transform="scale(0.015625)"/>
       <path id="DejaVuSans-32" d="M 1228 531 
L 3431 531 
L 3431 0 
L 469 0 
L 469 531 
Q 828 903 1448 1529 
Q 2069 2156 2228 2338 
Q 2531 2678 2651 2914 
Q 2772 3150 2772 3378 
Q 2772 3750 2511 3984 
Q 2250 4219 1831 4219 
Q 1534 4219 1204 4116 
Q 875 4013 500 3803 
L 500 4441 
Q 881 4594 1212 4672 
Q 1544 4750 1819 4750 
Q 2544 4750 2975 4387 
Q 3406 4025 3406 3419 
Q 3406 3131 3298 2873 
Q 3191 2616 2906 2266 
Q 2828 2175 2409 1742 
Q 1991 1309 1228 531 
z
" transform="scale(0.015625)"/>
       <path id="DejaVuSans-73" d="M 2834 3397 
L 2834 2853 
Q 2591 2978 2328 3040 
Q 2066 3103 1784 3103 
Q 1356 3103 1142 2972 
Q 928 2841 928 2578 
Q 928 2378 1081 2264 
Q 1234 2150 1697 2047 
L 1894 2003 
Q 2506 1872 2764 1633 
Q 3022 1394 3022 966 
Q 3022 478 2636 193 
Q 2250 -91 1575 -91 
Q 1294 -91 989 -36 
Q 684 19 347 128 
L 347 722 
Q 666 556 975 473 
Q 1284 391 1588 391 
Q 1994 391 2212 530 
Q 2431 669 2431 922 
Q 2431 1156 2273 1281 
Q 2116 1406 1581 1522 
L 1381 1569 
Q 847 1681 609 1914 
Q 372 2147 372 2553 
Q 372 3047 722 3315 
Q 1072 3584 1716 3584 
Q 2034 3584 2315 3537 
Q 2597 3491 2834 3397 
z
" transform="scale(0.015625)"/>
       <path id="DejaVuSans-2212" d="M 678 2272 
L 4684 2272 
L 4684 1741 
L 678 1741 
L 678 2272 
z
" transform="scale(0.015625)"/>
      </defs>
      <use xlink:href="#DejaVuSans-27e8" transform="translate(0 0.609375)"/>
      <use xlink:href="#DejaVuSans-302" transform="translate(111.842285 30.015625)"/>
      <use xlink:href="#DejaVuSans-Oblique-44" transform="translate(39.013672 0.609375)"/>
      <use xlink:href="#DejaVuSans-27e9" transform="translate(116.015625 0.609375)"/>
      <use xlink:href="#DejaVuSans-2f" transform="translate(155.029297 0.609375)"/>
      <use xlink:href="#DejaVuSans-6d" transform="translate(188.720703 0.609375)"/>
      <use xlink:href="#DejaVuSans-32" transform="translate(287.089844 38.890625)scale(0.7)"/>
      <use xlink:href="#DejaVuSans-73" transform="translate(334.360352 0.609375)"/>
      <use xlink:href="#DejaVuSans-2212" transform="translate(387.416992 38.890625)scale(0.7)"/>
      <use xlink:href="#DejaVuSans-31" transform="translate(446.069336 38.890625)scale(0.7)"/>
     </g>
    </g>
   </g>
   <g id="matplotlib.axis_2">
    <g id="ytick_1">
     <g id="line2d_4">
      <defs>
       <path id="m08b3e8d99f" d="M 0 0 
L -3.5 0 
" style="stroke: #161616; stroke-width: 0.8"/>
      </defs>
      <g>
       <use xlink:href="#m08b3e8d99f" x="38.9025" y="73.11825" style="fill: #161616; stroke: #161616; stroke-width: 0.8"/>
      </g>
     </g>
     <g id="text_5">
      <!-- 0 -->
      <g style="fill: #161616" transform="translate(28.3125 76.157625)scale(0.08 -0.08)">
       <use xlink:href="#DejaVuSans-30"/>
      </g>
     </g>
    </g>
    <g id="ytick_2">
     <g id="line2d_5">
      <g>
       <use xlink:href="#m08b3e8d99f" x="38.9025" y="54.63666" style="fill: #161616; stroke: #161616; stroke-width: 0.8"/>
      </g>
     </g>
     <g id="text_6">
      <!-- 40 -->
      <g style="fill: #161616" transform="translate(23.2225 57.676035)scale(0.08 -0.08)">
       <defs>
        <path id="DejaVuSans-34" d="M 2419 4116 
L 825 1625 
L 2419 1625 
L 2419 4116 
z
M 2253 4666 
L 3047 4666 
L 3047 1625 
L 3713 1625 
L 3713 1100 
L 3047 1100 
L 3047 0 
L 2419 0 
L 2419 1100 
L 313 1100 
L 313 1709 
L 2253 4666 
z
" transform="scale(0.015625)"/>
       </defs>
       <use xlink:href="#DejaVuSans-34"/>
       <use xlink:href="#DejaVuSans-30" x="63.623047"/>
      </g>
     </g>
    </g>
    <g id="ytick_3">
     <g id="line2d_6">
      <g>
       <use xlink:href="#m08b3e8d99f" x="38.9025" y="36.155071" style="fill: #161616; stroke: #161616; stroke-width: 0.8"/>
      </g>
     </g>
     <g id="text_7">
      <!-- 80 -->
      <g style="fill: #161616" transform="translate(23.2225 39.194446)scale(0.08 -0.08)">
       <use xlink:href="#DejaVuSans-38"/>
       <use xlink:href="#DejaVuSans-30" x="63.623047"/>
      </g>
     </g>
    </g>
    <g id="text_8">
     <!-- $p\langle \hat{D} \rangle$/m$^{-2}$s -->
     <g style="fill: #161616" transform="translate(18.5425 74.876085)rotate(-90)scale(0.08 -0.08)">
      <defs>
       <path id="DejaVuSans-Oblique-70" d="M 3175 2156 
Q 3175 2616 2975 2859 
Q 2775 3103 2400 3103 
Q 2144 3103 1911 2972 
Q 1678 2841 1497 2591 
Q 1319 2344 1212 1994 
Q 1106 1644 1106 1300 
Q 1106 863 1306 627 
Q 1506 391 1875 391 
Q 2147 391 2380 519 
Q 2613 647 2778 891 
Q 2956 1147 3065 1494 
Q 3175 1841 3175 2156 
z
M 1394 2969 
Q 1625 3272 1939 3428 
Q 2253 3584 2638 3584 
Q 3175 3584 3472 3232 
Q 3769 2881 3769 2247 
Q 3769 1728 3584 1258 
Q 3400 788 3053 416 
Q 2822 169 2531 39 
Q 2241 -91 1919 -91 
Q 1547 -91 1294 64 
Q 1041 219 916 525 
L 556 -1331 
L -19 -1331 
L 922 3500 
L 1497 3500 
L 1394 2969 
z
" transform="scale(0.015625)"/>
      </defs>
      <use xlink:href="#DejaVuSans-Oblique-70" transform="translate(0 0.609375)"/>
      <use xlink:href="#DejaVuSans-27e8" transform="translate(63.476562 0.609375)"/>
      <use xlink:href="#DejaVuSans-302" transform="translate(175.318848 30.015625)"/>
      <use xlink:href="#DejaVuSans-Oblique-44" transform="translate(102.490234 0.609375)"/>
      <use xlink:href="#DejaVuSans-27e9" transform="translate(179.492188 0.609375)"/>
      <use xlink:href="#DejaVuSans-2f" transform="translate(218.505859 0.609375)"/>
      <use xlink:href="#DejaVuSans-6d" transform="translate(252.197266 0.609375)"/>
      <use xlink:href="#DejaVuSans-2212" transform="translate(350.566406 38.890625)scale(0.7)"/>
      <use xlink:href="#DejaVuSans-32" transform="translate(409.21875 38.890625)scale(0.7)"/>
      <use xlink:href="#DejaVuSans-73" transform="translate(456.489258 0.609375)"/>
     </g>
    </g>
   </g>
   <g id="patch_3">
    <path d="M 43.80572 73.11825 
L 53.61216 73.11825 
L 53.61216 72.025612 
L 43.80572 72.025612 
z
" clip-path="url(#pf22ce01569)" style="fill: #00adef"/>
   </g>
   <g id="patch_4">
    <path d="M 53.61216 73.11825 
L 63.418599 73.11825 
L 63.418599 68.591606 
L 53.61216 68.591606 
z
" clip-path="url(#pf22ce01569)" style="fill: #00adef"/>
   </g>
   <g id="patch_5">
    <path d="M 63.418599 73.11825 
L 73.225039 73.11825 
L 73.225039 60.006592 
L 63.418599 60.006592 
z
" clip-path="url(#pf22ce01569)" style="fill: #00adef"/>
   </g>
   <g id="patch_6">
    <path d="M 73.225039 73.11825 
L 83.031479 73.11825 
L 83.031479 48.924119 
L 73.225039 48.924119 
z
" clip-path="url(#pf22ce01569)" style="fill: #00adef"/>
   </g>
   <g id="patch_7">
    <path d="M 83.031479 73.11825 
L 92.837918 73.11825 
L 92.837918 38.466011 
L 83.031479 38.466011 
z
" clip-path="url(#pf22ce01569)" style="fill: #00adef"/>
   </g>
   <g id="patch_8">
    <path d="M 92.837918 73.11825 
L 102.644358 73.11825 
L 102.644358 37.685555 
L 92.837918 37.685555 
z
" clip-path="url(#pf22ce01569)" style="fill: #00adef"/>
   </g>
   <g id="patch_9">
    <path d="M 102.644358 73.11825 
L 112.450798 73.11825 
L 112.450798 46.738843 
L 102.644358 46.738843 
z
" clip-path="url(#pf22ce01569)" style="fill: #00adef"/>
   </g>
   <g id="patch_10">
    <path d="M 112.450798 73.11825 
L 122.257238 73.11825 
L 122.257238 59.070045 
L 112.450798 59.070045 
z
" clip-path="url(#pf22ce01569)" style="fill: #00adef"/>
   </g>
   <g id="patch_11">
    <path d="M 122.257238 73.11825 
L 132.063677 73.11825 
L 132.063677 68.123333 
L 122.257238 68.123333 
z
" clip-path="url(#pf22ce01569)" style="fill: #00adef"/>
   </g>
   <g id="patch_12">
    <path d="M 132.063677 73.11825 
L 141.870117 73.11825 
L 141.870117 71.713429 
L 132.063677 71.713429 
z
" clip-path="url(#pf22ce01569)" style="fill: #00adef"/>
   </g>
   <g id="line2d_7">
    <path d="M 93.68444 73.11825 
L 93.68444 35.91392 
" clip-path="url(#pf22ce01569)" style="fill: none; stroke: #99be00; stroke-linecap: square"/>
   </g>
   <g id="patch_13">
    <path d="M 38.9025 73.11825 
L 38.9025 35.91392 
" style="fill: none; stroke: #161616; stroke-width: 0.8; stroke-linejoin: miter; stroke-linecap: square"/>
   </g>
   <g id="patch_14">
    <path d="M 38.9025 73.11825 
L 146.773337 73.11825 
" style="fill: none; stroke: #161616; stroke-width: 0.8; stroke-linejoin: miter; stroke-linecap: square"/>
   </g>
   <g id="text_9">
    <!-- a -->
    <g transform="translate(38.9025 31.273824)scale(0.08 -0.08)">
     <defs>
      <path id="DejaVuSans-Bold-61" d="M 2106 1575 
Q 1756 1575 1579 1456 
Q 1403 1338 1403 1106 
Q 1403 894 1545 773 
Q 1688 653 1941 653 
Q 2256 653 2472 879 
Q 2688 1106 2688 1447 
L 2688 1575 
L 2106 1575 
z
M 3816 1997 
L 3816 0 
L 2688 0 
L 2688 519 
Q 2463 200 2181 54 
Q 1900 -91 1497 -91 
Q 953 -91 614 226 
Q 275 544 275 1050 
Q 275 1666 698 1953 
Q 1122 2241 2028 2241 
L 2688 2241 
L 2688 2328 
Q 2688 2594 2478 2717 
Q 2269 2841 1825 2841 
Q 1466 2841 1156 2769 
Q 847 2697 581 2553 
L 581 3406 
Q 941 3494 1303 3539 
Q 1666 3584 2028 3584 
Q 2975 3584 3395 3211 
Q 3816 2838 3816 1997 
z
" transform="scale(0.015625)"/>
     </defs>
     <use xlink:href="#DejaVuSans-Bold-61"/>
    </g>
   </g>
  </g>
  <g id="axes_2">
   <g id="patch_15">
    <path d="M 38.9025 162.252 
L 146.773337 162.252 
L 146.773337 125.04767 
L 38.9025 125.04767 
z
" style="fill: #ffffff"/>
   </g>
   <g id="matplotlib.axis_3">
    <g id="xtick_4">
     <g id="line2d_8">
      <g>
       <use xlink:href="#maeebdc2295" x="38.9025" y="162.252" style="fill: #161616; stroke: #161616; stroke-width: 0.8"/>
      </g>
     </g>
     <g id="text_10">
      <!-- 0 -->
      <g style="fill: #161616" transform="translate(36.3575 173.83075)scale(0.08 -0.08)">
       <use xlink:href="#DejaVuSans-30"/>
      </g>
     </g>
    </g>
    <g id="xtick_5">
     <g id="line2d_9">
      <g>
       <use xlink:href="#maeebdc2295" x="86.209433" y="162.252" style="fill: #161616; stroke: #161616; stroke-width: 0.8"/>
      </g>
     </g>
     <g id="text_11">
      <!-- 20 -->
      <g style="fill: #161616" transform="translate(81.119433 173.83075)scale(0.08 -0.08)">
       <use xlink:href="#DejaVuSans-32"/>
       <use xlink:href="#DejaVuSans-30" x="63.623047"/>
      </g>
     </g>
    </g>
    <g id="xtick_6">
     <g id="line2d_10">
      <g>
       <use xlink:href="#maeebdc2295" x="133.516365" y="162.252" style="fill: #161616; stroke: #161616; stroke-width: 0.8"/>
      </g>
     </g>
     <g id="text_12">
      <!-- 40 -->
      <g style="fill: #161616" transform="translate(128.426365 173.83075)scale(0.08 -0.08)">
       <use xlink:href="#DejaVuSans-34"/>
       <use xlink:href="#DejaVuSans-30" x="63.623047"/>
      </g>
     </g>
    </g>
    <g id="text_13">
     <!-- $\sigma^2 (\hat{D})$/$10^{-6}$m$^4$s$^{-2}$ -->
     <g style="fill: #161616" transform="translate(59.117918 186.75075)scale(0.08 -0.08)">
      <defs>
       <path id="DejaVuSans-Oblique-3c3" d="M 2219 3044 
Q 1744 3044 1422 2700 
Q 1081 2341 969 1747 
Q 844 1119 1044 756 
Q 1241 397 1706 397 
Q 2166 397 2503 759 
Q 2844 1122 2966 1747 
Q 3075 2319 2881 2700 
Q 2700 3044 2219 3044 
z
M 2309 3503 
L 4219 3500 
L 4106 2925 
L 3463 2925 
Q 3706 2438 3575 1747 
Q 3406 888 2884 400 
Q 2359 -91 1609 -91 
Q 856 -91 525 400 
Q 194 888 363 1747 
Q 528 2609 1050 3097 
Q 1484 3503 2309 3503 
z
" transform="scale(0.015625)"/>
       <path id="DejaVuSans-28" d="M 1984 4856 
Q 1566 4138 1362 3434 
Q 1159 2731 1159 2009 
Q 1159 1288 1364 580 
Q 1569 -128 1984 -844 
L 1484 -844 
Q 1016 -109 783 600 
Q 550 1309 550 2009 
Q 550 2706 781 3412 
Q 1013 4119 1484 4856 
L 1984 4856 
z
" transform="scale(0.015625)"/>
       <path id="DejaVuSans-29" d="M 513 4856 
L 1013 4856 
Q 1481 4119 1714 3412 
Q 1947 2706 1947 2009 
Q 1947 1309 1714 600 
Q 1481 -109 1013 -844 
L 513 -844 
Q 928 -128 1133 580 
Q 1338 1288 1338 2009 
Q 1338 2731 1133 3434 
Q 928 4138 513 4856 
z
" transform="scale(0.015625)"/>
      </defs>
      <use xlink:href="#DejaVuSans-Oblique-3c3" transform="translate(0 0.609375)"/>
      <use xlink:href="#DejaVuSans-32" transform="translate(67.851615 38.890625)scale(0.7)"/>
      <use xlink:href="#DejaVuSans-28" transform="translate(115.122122 0.609375)"/>
      <use xlink:href="#DejaVuSans-302" transform="translate(226.964408 30.015625)"/>
      <use xlink:href="#DejaVuSans-Oblique-44" transform="translate(154.135794 0.609375)"/>
      <use xlink:href="#DejaVuSans-29" transform="translate(231.137747 0.609375)"/>
      <use xlink:href="#DejaVuSans-2f" transform="translate(270.151419 0.609375)"/>
      <use xlink:href="#DejaVuSans-31" transform="translate(303.842826 0.609375)"/>
      <use xlink:href="#DejaVuSans-30" transform="translate(367.465872 0.609375)"/>
      <use xlink:href="#DejaVuSans-2212" transform="translate(432.045951 38.890625)scale(0.7)"/>
      <use xlink:href="#DejaVuSans-36" transform="translate(490.698294 38.890625)scale(0.7)"/>
      <use xlink:href="#DejaVuSans-6d" transform="translate(537.968802 0.609375)"/>
      <use xlink:href="#DejaVuSans-34" transform="translate(636.337943 38.890625)scale(0.7)"/>
      <use xlink:href="#DejaVuSans-73" transform="translate(683.608451 0.609375)"/>
      <use xlink:href="#DejaVuSans-2212" transform="translate(736.665091 38.890625)scale(0.7)"/>
      <use xlink:href="#DejaVuSans-32" transform="translate(795.317435 38.890625)scale(0.7)"/>
     </g>
    </g>
   </g>
   <g id="matplotlib.axis_4">
    <g id="ytick_4">
     <g id="line2d_11">
      <g>
       <use xlink:href="#m08b3e8d99f" x="38.9025" y="162.252" style="fill: #161616; stroke: #161616; stroke-width: 0.8"/>
      </g>
     </g>
     <g id="text_14">
      <!-- 0.0 -->
      <g style="fill: #161616" transform="translate(20.68 165.291375)scale(0.08 -0.08)">
       <use xlink:href="#DejaVuSans-30"/>
       <use xlink:href="#DejaVuSans-2e" x="63.623047"/>
       <use xlink:href="#DejaVuSans-30" x="95.410156"/>
      </g>
     </g>
    </g>
    <g id="ytick_5">
     <g id="line2d_12">
      <g>
       <use xlink:href="#m08b3e8d99f" x="38.9025" y="145.220272" style="fill: #161616; stroke: #161616; stroke-width: 0.8"/>
      </g>
     </g>
     <g id="text_15">
      <!-- 4.0 -->
      <g style="fill: #161616" transform="translate(20.68 148.259647)scale(0.08 -0.08)">
       <use xlink:href="#DejaVuSans-34"/>
       <use xlink:href="#DejaVuSans-2e" x="63.623047"/>
       <use xlink:href="#DejaVuSans-30" x="95.410156"/>
      </g>
     </g>
    </g>
    <g id="ytick_6">
     <g id="line2d_13">
      <g>
       <use xlink:href="#m08b3e8d99f" x="38.9025" y="128.188544" style="fill: #161616; stroke: #161616; stroke-width: 0.8"/>
      </g>
     </g>
     <g id="text_16">
      <!-- 8.0 -->
      <g style="fill: #161616" transform="translate(20.68 131.227919)scale(0.08 -0.08)">
       <use xlink:href="#DejaVuSans-38"/>
       <use xlink:href="#DejaVuSans-2e" x="63.623047"/>
       <use xlink:href="#DejaVuSans-30" x="95.410156"/>
      </g>
     </g>
    </g>
    <g id="text_17">
     <!-- $p[\sigma^2 (\hat{D})]$/$10^{4}$m$^{-2}$s -->
     <g style="fill: #161616" transform="translate(16 178.769835)rotate(-90)scale(0.08 -0.08)">
      <defs>
       <path id="DejaVuSans-5b" d="M 550 4863 
L 1875 4863 
L 1875 4416 
L 1125 4416 
L 1125 -397 
L 1875 -397 
L 1875 -844 
L 550 -844 
L 550 4863 
z
" transform="scale(0.015625)"/>
       <path id="DejaVuSans-5d" d="M 1947 4863 
L 1947 -844 
L 622 -844 
L 622 -397 
L 1369 -397 
L 1369 4416 
L 622 4416 
L 622 4863 
L 1947 4863 
z
" transform="scale(0.015625)"/>
      </defs>
      <use xlink:href="#DejaVuSans-Oblique-70" transform="translate(0 0.609375)"/>
      <use xlink:href="#DejaVuSans-5b" transform="translate(63.476562 0.609375)"/>
      <use xlink:href="#DejaVuSans-Oblique-3c3" transform="translate(102.490234 0.609375)"/>
      <use xlink:href="#DejaVuSans-32" transform="translate(170.341849 38.890625)scale(0.7)"/>
      <use xlink:href="#DejaVuSans-28" transform="translate(217.612357 0.609375)"/>
      <use xlink:href="#DejaVuSans-302" transform="translate(329.454642 30.015625)"/>
      <use xlink:href="#DejaVuSans-Oblique-44" transform="translate(256.626029 0.609375)"/>
      <use xlink:href="#DejaVuSans-29" transform="translate(333.627982 0.609375)"/>
      <use xlink:href="#DejaVuSans-5d" transform="translate(372.641654 0.609375)"/>
      <use xlink:href="#DejaVuSans-2f" transform="translate(411.655326 0.609375)"/>
      <use xlink:href="#DejaVuSans-31" transform="translate(445.346732 0.609375)"/>
      <use xlink:href="#DejaVuSans-30" transform="translate(508.969779 0.609375)"/>
      <use xlink:href="#DejaVuSans-34" transform="translate(573.549857 38.890625)scale(0.7)"/>
      <use xlink:href="#DejaVuSans-6d" transform="translate(620.820365 0.609375)"/>
      <use xlink:href="#DejaVuSans-2212" transform="translate(719.189505 38.890625)scale(0.7)"/>
      <use xlink:href="#DejaVuSans-32" transform="translate(777.841849 38.890625)scale(0.7)"/>
      <use xlink:href="#DejaVuSans-73" transform="translate(825.112357 0.609375)"/>
     </g>
    </g>
   </g>
   <g id="patch_16">
    <path d="M 66.62189 162.252 
L 74.255362 162.252 
L 74.255362 161.607769 
L 66.62189 161.607769 
z
" clip-path="url(#p1378de9c67)" style="fill: #00adef"/>
   </g>
   <g id="patch_17">
    <path d="M 74.255362 162.252 
L 81.888833 162.252 
L 81.888833 157.098153 
L 74.255362 157.098153 
z
" clip-path="url(#p1378de9c67)" style="fill: #00adef"/>
   </g>
   <g id="patch_18">
    <path d="M 81.888833 162.252 
L 89.522304 162.252 
L 89.522304 141.250075 
L 81.888833 141.250075 
z
" clip-path="url(#p1378de9c67)" style="fill: #00adef"/>
   </g>
   <g id="patch_19">
    <path d="M 89.522304 162.252 
L 97.155775 162.252 
L 97.155775 126.819305 
L 89.522304 126.819305 
z
" clip-path="url(#p1378de9c67)" style="fill: #00adef"/>
   </g>
   <g id="patch_20">
    <path d="M 97.155775 162.252 
L 104.789246 162.252 
L 104.789246 129.782767 
L 97.155775 129.782767 
z
" clip-path="url(#p1378de9c67)" style="fill: #00adef"/>
   </g>
   <g id="patch_21">
    <path d="M 104.789246 162.252 
L 112.422717 162.252 
L 112.422717 141.378921 
L 104.789246 141.378921 
z
" clip-path="url(#p1378de9c67)" style="fill: #00adef"/>
   </g>
   <g id="patch_22">
    <path d="M 112.422717 162.252 
L 120.056188 162.252 
L 120.056188 152.588538 
L 112.422717 152.588538 
z
" clip-path="url(#p1378de9c67)" style="fill: #00adef"/>
   </g>
   <g id="patch_23">
    <path d="M 120.056188 162.252 
L 127.689659 162.252 
L 127.689659 158.128923 
L 120.056188 158.128923 
z
" clip-path="url(#p1378de9c67)" style="fill: #00adef"/>
   </g>
   <g id="patch_24">
    <path d="M 127.689659 162.252 
L 135.32313 162.252 
L 135.32313 160.448154 
L 127.689659 160.448154 
z
" clip-path="url(#p1378de9c67)" style="fill: #00adef"/>
   </g>
   <g id="patch_25">
    <path d="M 135.32313 162.252 
L 142.956601 162.252 
L 142.956601 161.478923 
L 135.32313 161.478923 
z
" clip-path="url(#p1378de9c67)" style="fill: #00adef"/>
   </g>
   <g id="line2d_14">
    <path d="M 65.764587 162.252 
L 65.764587 125.04767 
" clip-path="url(#p1378de9c67)" style="fill: none; stroke: #006646; stroke-linecap: square"/>
   </g>
   <g id="patch_26">
    <path d="M 38.9025 162.252 
L 38.9025 125.04767 
" style="fill: none; stroke: #161616; stroke-width: 0.8; stroke-linejoin: miter; stroke-linecap: square"/>
   </g>
   <g id="patch_27">
    <path d="M 38.9025 162.252 
L 146.773337 162.252 
" style="fill: none; stroke: #161616; stroke-width: 0.8; stroke-linejoin: miter; stroke-linecap: square"/>
   </g>
   <g id="text_18">
    <!-- c -->
    <g transform="translate(38.9025 120.407574)scale(0.08 -0.08)">
     <defs>
      <path id="DejaVuSans-Bold-63" d="M 3366 3391 
L 3366 2478 
Q 3138 2634 2908 2709 
Q 2678 2784 2431 2784 
Q 1963 2784 1702 2511 
Q 1441 2238 1441 1747 
Q 1441 1256 1702 982 
Q 1963 709 2431 709 
Q 2694 709 2930 787 
Q 3166 866 3366 1019 
L 3366 103 
Q 3103 6 2833 -42 
Q 2563 -91 2291 -91 
Q 1344 -91 809 395 
Q 275 881 275 1747 
Q 275 2613 809 3098 
Q 1344 3584 2291 3584 
Q 2566 3584 2833 3536 
Q 3100 3488 3366 3391 
z
" transform="scale(0.015625)"/>
     </defs>
     <use xlink:href="#DejaVuSans-Bold-63"/>
    </g>
   </g>
  </g>
  <g id="axes_3">
   <g id="patch_28">
    <path d="M 195.204483 73.11825 
L 303.07532 73.11825 
L 303.07532 35.91392 
L 195.204483 35.91392 
z
" style="fill: #ffffff"/>
   </g>
   <g id="matplotlib.axis_5">
    <g id="xtick_7">
     <g id="line2d_15">
      <g>
       <use xlink:href="#maeebdc2295" x="200.560733" y="73.11825" style="fill: #161616; stroke: #161616; stroke-width: 0.8"/>
      </g>
     </g>
     <g id="text_19">
      <!-- 0.075 -->
      <g style="fill: #161616" transform="translate(189.109483 84.697)scale(0.08 -0.08)">
       <defs>
        <path id="DejaVuSans-35" d="M 691 4666 
L 3169 4666 
L 3169 4134 
L 1269 4134 
L 1269 2991 
Q 1406 3038 1543 3061 
Q 1681 3084 1819 3084 
Q 2600 3084 3056 2656 
Q 3513 2228 3513 1497 
Q 3513 744 3044 326 
Q 2575 -91 1722 -91 
Q 1428 -91 1123 -41 
Q 819 9 494 109 
L 494 744 
Q 775 591 1075 516 
Q 1375 441 1709 441 
Q 2250 441 2565 725 
Q 2881 1009 2881 1497 
Q 2881 1984 2565 2268 
Q 2250 2553 1709 2553 
Q 1456 2553 1204 2497 
Q 953 2441 691 2322 
L 691 4666 
z
" transform="scale(0.015625)"/>
       </defs>
       <use xlink:href="#DejaVuSans-30"/>
       <use xlink:href="#DejaVuSans-2e" x="63.623047"/>
       <use xlink:href="#DejaVuSans-30" x="95.410156"/>
       <use xlink:href="#DejaVuSans-37" x="159.033203"/>
       <use xlink:href="#DejaVuSans-35" x="222.65625"/>
      </g>
     </g>
    </g>
    <g id="xtick_8">
     <g id="line2d_16">
      <g>
       <use xlink:href="#maeebdc2295" x="231.362046" y="73.11825" style="fill: #161616; stroke: #161616; stroke-width: 0.8"/>
      </g>
     </g>
     <g id="text_20">
      <!-- 0.080 -->
      <g style="fill: #161616" transform="translate(219.910796 84.697)scale(0.08 -0.08)">
       <use xlink:href="#DejaVuSans-30"/>
       <use xlink:href="#DejaVuSans-2e" x="63.623047"/>
       <use xlink:href="#DejaVuSans-30" x="95.410156"/>
       <use xlink:href="#DejaVuSans-38" x="159.033203"/>
       <use xlink:href="#DejaVuSans-30" x="222.65625"/>
      </g>
     </g>
    </g>
    <g id="xtick_9">
     <g id="line2d_17">
      <g>
       <use xlink:href="#maeebdc2295" x="262.163358" y="73.11825" style="fill: #161616; stroke: #161616; stroke-width: 0.8"/>
      </g>
     </g>
     <g id="text_21">
      <!-- 0.085 -->
      <g style="fill: #161616" transform="translate(250.712108 84.697)scale(0.08 -0.08)">
       <use xlink:href="#DejaVuSans-30"/>
       <use xlink:href="#DejaVuSans-2e" x="63.623047"/>
       <use xlink:href="#DejaVuSans-30" x="95.410156"/>
       <use xlink:href="#DejaVuSans-38" x="159.033203"/>
       <use xlink:href="#DejaVuSans-35" x="222.65625"/>
      </g>
     </g>
    </g>
    <g id="xtick_10">
     <g id="line2d_18">
      <g>
       <use xlink:href="#maeebdc2295" x="292.96467" y="73.11825" style="fill: #161616; stroke: #161616; stroke-width: 0.8"/>
      </g>
     </g>
     <g id="text_22">
      <!-- 0.090 -->
      <g style="fill: #161616" transform="translate(281.51342 84.697)scale(0.08 -0.08)">
       <defs>
        <path id="DejaVuSans-39" d="M 703 97 
L 703 672 
Q 941 559 1184 500 
Q 1428 441 1663 441 
Q 2288 441 2617 861 
Q 2947 1281 2994 2138 
Q 2813 1869 2534 1725 
Q 2256 1581 1919 1581 
Q 1219 1581 811 2004 
Q 403 2428 403 3163 
Q 403 3881 828 4315 
Q 1253 4750 1959 4750 
Q 2769 4750 3195 4129 
Q 3622 3509 3622 2328 
Q 3622 1225 3098 567 
Q 2575 -91 1691 -91 
Q 1453 -91 1209 -44 
Q 966 3 703 97 
z
M 1959 2075 
Q 2384 2075 2632 2365 
Q 2881 2656 2881 3163 
Q 2881 3666 2632 3958 
Q 2384 4250 1959 4250 
Q 1534 4250 1286 3958 
Q 1038 3666 1038 3163 
Q 1038 2656 1286 2365 
Q 1534 2075 1959 2075 
z
" transform="scale(0.015625)"/>
       </defs>
       <use xlink:href="#DejaVuSans-30"/>
       <use xlink:href="#DejaVuSans-2e" x="63.623047"/>
       <use xlink:href="#DejaVuSans-30" x="95.410156"/>
       <use xlink:href="#DejaVuSans-39" x="159.033203"/>
       <use xlink:href="#DejaVuSans-30" x="222.65625"/>
      </g>
     </g>
    </g>
    <g id="text_23">
     <!-- $\langle \hat{D} \rangle$/m$^2$s$ ^{-1}$ -->
     <g style="fill: #161616" transform="translate(229.379902 97.617)scale(0.08 -0.08)">
      <use xlink:href="#DejaVuSans-27e8" transform="translate(0 0.609375)"/>
      <use xlink:href="#DejaVuSans-302" transform="translate(111.842285 30.015625)"/>
      <use xlink:href="#DejaVuSans-Oblique-44" transform="translate(39.013672 0.609375)"/>
      <use xlink:href="#DejaVuSans-27e9" transform="translate(116.015625 0.609375)"/>
      <use xlink:href="#DejaVuSans-2f" transform="translate(155.029297 0.609375)"/>
      <use xlink:href="#DejaVuSans-6d" transform="translate(188.720703 0.609375)"/>
      <use xlink:href="#DejaVuSans-32" transform="translate(287.089844 38.890625)scale(0.7)"/>
      <use xlink:href="#DejaVuSans-73" transform="translate(334.360352 0.609375)"/>
      <use xlink:href="#DejaVuSans-2212" transform="translate(387.416992 38.890625)scale(0.7)"/>
      <use xlink:href="#DejaVuSans-31" transform="translate(446.069336 38.890625)scale(0.7)"/>
     </g>
    </g>
   </g>
   <g id="matplotlib.axis_6">
    <g id="ytick_7">
     <g id="line2d_19">
      <g>
       <use xlink:href="#m08b3e8d99f" x="195.204483" y="73.11825" style="fill: #161616; stroke: #161616; stroke-width: 0.8"/>
      </g>
     </g>
     <g id="text_24">
      <!-- 0 -->
      <g style="fill: #161616" transform="translate(184.614483 76.157625)scale(0.08 -0.08)">
       <use xlink:href="#DejaVuSans-30"/>
      </g>
     </g>
    </g>
    <g id="ytick_8">
     <g id="line2d_20">
      <g>
       <use xlink:href="#m08b3e8d99f" x="195.204483" y="56.520965" style="fill: #161616; stroke: #161616; stroke-width: 0.8"/>
      </g>
     </g>
     <g id="text_25">
      <!-- 75 -->
      <g style="fill: #161616" transform="translate(179.524483 59.56034)scale(0.08 -0.08)">
       <use xlink:href="#DejaVuSans-37"/>
       <use xlink:href="#DejaVuSans-35" x="63.623047"/>
      </g>
     </g>
    </g>
    <g id="ytick_9">
     <g id="line2d_21">
      <g>
       <use xlink:href="#m08b3e8d99f" x="195.204483" y="39.92368" style="fill: #161616; stroke: #161616; stroke-width: 0.8"/>
      </g>
     </g>
     <g id="text_26">
      <!-- 150 -->
      <g style="fill: #161616" transform="translate(174.434483 42.963055)scale(0.08 -0.08)">
       <use xlink:href="#DejaVuSans-31"/>
       <use xlink:href="#DejaVuSans-35" x="63.623047"/>
       <use xlink:href="#DejaVuSans-30" x="127.246094"/>
      </g>
     </g>
    </g>
    <g id="text_27">
     <!-- $p\langle \hat{D} \rangle$/m$^{-2}$s -->
     <g style="fill: #161616" transform="translate(169.754483 74.876085)rotate(-90)scale(0.08 -0.08)">
      <use xlink:href="#DejaVuSans-Oblique-70" transform="translate(0 0.609375)"/>
      <use xlink:href="#DejaVuSans-27e8" transform="translate(63.476562 0.609375)"/>
      <use xlink:href="#DejaVuSans-302" transform="translate(175.318848 30.015625)"/>
      <use xlink:href="#DejaVuSans-Oblique-44" transform="translate(102.490234 0.609375)"/>
      <use xlink:href="#DejaVuSans-27e9" transform="translate(179.492188 0.609375)"/>
      <use xlink:href="#DejaVuSans-2f" transform="translate(218.505859 0.609375)"/>
      <use xlink:href="#DejaVuSans-6d" transform="translate(252.197266 0.609375)"/>
      <use xlink:href="#DejaVuSans-2212" transform="translate(350.566406 38.890625)scale(0.7)"/>
      <use xlink:href="#DejaVuSans-32" transform="translate(409.21875 38.890625)scale(0.7)"/>
      <use xlink:href="#DejaVuSans-73" transform="translate(456.489258 0.609375)"/>
     </g>
    </g>
   </g>
   <g id="patch_29">
    <path d="M 200.107703 73.11825 
L 209.914143 73.11825 
L 209.914143 72.57522 
L 200.107703 72.57522 
z
" clip-path="url(#p7944bbbf85)" style="fill: #00adef"/>
   </g>
   <g id="patch_30">
    <path d="M 209.914143 73.11825 
L 219.720582 73.11825 
L 219.720582 70.810373 
L 209.914143 70.810373 
z
" clip-path="url(#p7944bbbf85)" style="fill: #00adef"/>
   </g>
   <g id="patch_31">
    <path d="M 219.720582 73.11825 
L 229.527022 73.11825 
L 229.527022 65.244318 
L 219.720582 65.244318 
z
" clip-path="url(#p7944bbbf85)" style="fill: #00adef"/>
   </g>
   <g id="patch_32">
    <path d="M 229.527022 73.11825 
L 239.333462 73.11825 
L 239.333462 52.211602 
L 229.527022 52.211602 
z
" clip-path="url(#p7944bbbf85)" style="fill: #00adef"/>
   </g>
   <g id="patch_33">
    <path d="M 239.333462 73.11825 
L 249.139902 73.11825 
L 249.139902 46.509789 
L 239.333462 46.509789 
z
" clip-path="url(#p7944bbbf85)" style="fill: #00adef"/>
   </g>
   <g id="patch_34">
    <path d="M 249.139902 73.11825 
L 258.946341 73.11825 
L 258.946341 37.685555 
L 249.139902 37.685555 
z
" clip-path="url(#p7944bbbf85)" style="fill: #00adef"/>
   </g>
   <g id="patch_35">
    <path d="M 258.946341 73.11825 
L 268.752781 73.11825 
L 268.752781 48.681908 
L 258.946341 48.681908 
z
" clip-path="url(#p7944bbbf85)" style="fill: #00adef"/>
   </g>
   <g id="patch_36">
    <path d="M 268.752781 73.11825 
L 278.559221 73.11825 
L 278.559221 58.72796 
L 268.752781 58.72796 
z
" clip-path="url(#p7944bbbf85)" style="fill: #00adef"/>
   </g>
   <g id="patch_37">
    <path d="M 278.559221 73.11825 
L 288.36566 73.11825 
L 288.36566 68.095224 
L 278.559221 68.095224 
z
" clip-path="url(#p7944bbbf85)" style="fill: #00adef"/>
   </g>
   <g id="patch_38">
    <path d="M 288.36566 73.11825 
L 298.1721 73.11825 
L 298.1721 71.624918 
L 288.36566 71.624918 
z
" clip-path="url(#p7944bbbf85)" style="fill: #00adef"/>
   </g>
   <g id="line2d_22">
    <path d="M 250.859111 73.11825 
L 250.859111 35.91392 
" clip-path="url(#p7944bbbf85)" style="fill: none; stroke: #99be00; stroke-linecap: square"/>
   </g>
   <g id="patch_39">
    <path d="M 195.204483 73.11825 
L 195.204483 35.91392 
" style="fill: none; stroke: #161616; stroke-width: 0.8; stroke-linejoin: miter; stroke-linecap: square"/>
   </g>
   <g id="patch_40">
    <path d="M 195.204483 73.11825 
L 303.07532 73.11825 
" style="fill: none; stroke: #161616; stroke-width: 0.8; stroke-linejoin: miter; stroke-linecap: square"/>
   </g>
   <g id="text_28">
    <!-- b -->
    <g transform="translate(195.204483 31.273824)scale(0.08 -0.08)">
     <defs>
      <path id="DejaVuSans-Bold-62" d="M 2400 722 
Q 2759 722 2948 984 
Q 3138 1247 3138 1747 
Q 3138 2247 2948 2509 
Q 2759 2772 2400 2772 
Q 2041 2772 1848 2508 
Q 1656 2244 1656 1747 
Q 1656 1250 1848 986 
Q 2041 722 2400 722 
z
M 1656 2988 
Q 1888 3294 2169 3439 
Q 2450 3584 2816 3584 
Q 3463 3584 3878 3070 
Q 4294 2556 4294 1747 
Q 4294 938 3878 423 
Q 3463 -91 2816 -91 
Q 2450 -91 2169 54 
Q 1888 200 1656 506 
L 1656 0 
L 538 0 
L 538 4863 
L 1656 4863 
L 1656 2988 
z
" transform="scale(0.015625)"/>
     </defs>
     <use xlink:href="#DejaVuSans-Bold-62"/>
    </g>
   </g>
  </g>
  <g id="axes_4">
   <g id="patch_41">
    <path d="M 195.204483 162.252 
L 303.07532 162.252 
L 303.07532 125.04767 
L 195.204483 125.04767 
z
" style="fill: #ffffff"/>
   </g>
   <g id="matplotlib.axis_7">
    <g id="xtick_11">
     <g id="line2d_23">
      <g>
       <use xlink:href="#maeebdc2295" x="195.204483" y="162.252" style="fill: #161616; stroke: #161616; stroke-width: 0.8"/>
      </g>
     </g>
     <g id="text_29">
      <!-- 0 -->
      <g style="fill: #161616" transform="translate(192.659483 173.83075)scale(0.08 -0.08)">
       <use xlink:href="#DejaVuSans-30"/>
      </g>
     </g>
    </g>
    <g id="xtick_12">
     <g id="line2d_24">
      <g>
       <use xlink:href="#maeebdc2295" x="234.354228" y="162.252" style="fill: #161616; stroke: #161616; stroke-width: 0.8"/>
      </g>
     </g>
     <g id="text_30">
      <!-- 5 -->
      <g style="fill: #161616" transform="translate(231.809228 173.83075)scale(0.08 -0.08)">
       <use xlink:href="#DejaVuSans-35"/>
      </g>
     </g>
    </g>
    <g id="xtick_13">
     <g id="line2d_25">
      <g>
       <use xlink:href="#maeebdc2295" x="273.503972" y="162.252" style="fill: #161616; stroke: #161616; stroke-width: 0.8"/>
      </g>
     </g>
     <g id="text_31">
      <!-- 10 -->
      <g style="fill: #161616" transform="translate(268.413972 173.83075)scale(0.08 -0.08)">
       <use xlink:href="#DejaVuSans-31"/>
       <use xlink:href="#DejaVuSans-30" x="63.623047"/>
      </g>
     </g>
    </g>
    <g id="text_32">
     <!-- $\sigma^2 (\hat{D})$/$10^{-6}$m$^4$s$^{-2}$ -->
     <g style="fill: #161616" transform="translate(215.419902 186.75075)scale(0.08 -0.08)">
      <use xlink:href="#DejaVuSans-Oblique-3c3" transform="translate(0 0.609375)"/>
      <use xlink:href="#DejaVuSans-32" transform="translate(67.851615 38.890625)scale(0.7)"/>
      <use xlink:href="#DejaVuSans-28" transform="translate(115.122122 0.609375)"/>
      <use xlink:href="#DejaVuSans-302" transform="translate(226.964408 30.015625)"/>
      <use xlink:href="#DejaVuSans-Oblique-44" transform="translate(154.135794 0.609375)"/>
      <use xlink:href="#DejaVuSans-29" transform="translate(231.137747 0.609375)"/>
      <use xlink:href="#DejaVuSans-2f" transform="translate(270.151419 0.609375)"/>
      <use xlink:href="#DejaVuSans-31" transform="translate(303.842826 0.609375)"/>
      <use xlink:href="#DejaVuSans-30" transform="translate(367.465872 0.609375)"/>
      <use xlink:href="#DejaVuSans-2212" transform="translate(432.045951 38.890625)scale(0.7)"/>
      <use xlink:href="#DejaVuSans-36" transform="translate(490.698294 38.890625)scale(0.7)"/>
      <use xlink:href="#DejaVuSans-6d" transform="translate(537.968802 0.609375)"/>
      <use xlink:href="#DejaVuSans-34" transform="translate(636.337943 38.890625)scale(0.7)"/>
      <use xlink:href="#DejaVuSans-73" transform="translate(683.608451 0.609375)"/>
      <use xlink:href="#DejaVuSans-2212" transform="translate(736.665091 38.890625)scale(0.7)"/>
      <use xlink:href="#DejaVuSans-32" transform="translate(795.317435 38.890625)scale(0.7)"/>
     </g>
    </g>
   </g>
   <g id="matplotlib.axis_8">
    <g id="ytick_10">
     <g id="line2d_26">
      <g>
       <use xlink:href="#m08b3e8d99f" x="195.204483" y="162.252" style="fill: #161616; stroke: #161616; stroke-width: 0.8"/>
      </g>
     </g>
     <g id="text_33">
      <!-- 0.0 -->
      <g style="fill: #161616" transform="translate(176.981983 165.291375)scale(0.08 -0.08)">
       <use xlink:href="#DejaVuSans-30"/>
       <use xlink:href="#DejaVuSans-2e" x="63.623047"/>
       <use xlink:href="#DejaVuSans-30" x="95.410156"/>
      </g>
     </g>
    </g>
    <g id="ytick_11">
     <g id="line2d_27">
      <g>
       <use xlink:href="#m08b3e8d99f" x="195.204483" y="146.8032" style="fill: #161616; stroke: #161616; stroke-width: 0.8"/>
      </g>
     </g>
     <g id="text_34">
      <!-- 1.4 -->
      <g style="fill: #161616" transform="translate(176.981983 149.842575)scale(0.08 -0.08)">
       <use xlink:href="#DejaVuSans-31"/>
       <use xlink:href="#DejaVuSans-2e" x="63.623047"/>
       <use xlink:href="#DejaVuSans-34" x="95.410156"/>
      </g>
     </g>
    </g>
    <g id="ytick_12">
     <g id="line2d_28">
      <g>
       <use xlink:href="#m08b3e8d99f" x="195.204483" y="131.354401" style="fill: #161616; stroke: #161616; stroke-width: 0.8"/>
      </g>
     </g>
     <g id="text_35">
      <!-- 2.8 -->
      <g style="fill: #161616" transform="translate(176.981983 134.393776)scale(0.08 -0.08)">
       <use xlink:href="#DejaVuSans-32"/>
       <use xlink:href="#DejaVuSans-2e" x="63.623047"/>
       <use xlink:href="#DejaVuSans-38" x="95.410156"/>
      </g>
     </g>
    </g>
    <g id="text_36">
     <!-- $p[\sigma^2 (\hat{D})]$/$10^{5}$m$^{-2}$s -->
     <g style="fill: #161616" transform="translate(172.301983 178.769835)rotate(-90)scale(0.08 -0.08)">
      <use xlink:href="#DejaVuSans-Oblique-70" transform="translate(0 0.609375)"/>
      <use xlink:href="#DejaVuSans-5b" transform="translate(63.476562 0.609375)"/>
      <use xlink:href="#DejaVuSans-Oblique-3c3" transform="translate(102.490234 0.609375)"/>
      <use xlink:href="#DejaVuSans-32" transform="translate(170.341849 38.890625)scale(0.7)"/>
      <use xlink:href="#DejaVuSans-28" transform="translate(217.612357 0.609375)"/>
      <use xlink:href="#DejaVuSans-302" transform="translate(329.454642 30.015625)"/>
      <use xlink:href="#DejaVuSans-Oblique-44" transform="translate(256.626029 0.609375)"/>
      <use xlink:href="#DejaVuSans-29" transform="translate(333.627982 0.609375)"/>
      <use xlink:href="#DejaVuSans-5d" transform="translate(372.641654 0.609375)"/>
      <use xlink:href="#DejaVuSans-2f" transform="translate(411.655326 0.609375)"/>
      <use xlink:href="#DejaVuSans-31" transform="translate(445.346732 0.609375)"/>
      <use xlink:href="#DejaVuSans-30" transform="translate(508.969779 0.609375)"/>
      <use xlink:href="#DejaVuSans-35" transform="translate(573.549857 38.890625)scale(0.7)"/>
      <use xlink:href="#DejaVuSans-6d" transform="translate(620.820365 0.609375)"/>
      <use xlink:href="#DejaVuSans-2212" transform="translate(719.189505 38.890625)scale(0.7)"/>
      <use xlink:href="#DejaVuSans-32" transform="translate(777.841849 38.890625)scale(0.7)"/>
      <use xlink:href="#DejaVuSans-73" transform="translate(825.112357 0.609375)"/>
     </g>
    </g>
   </g>
   <g id="patch_42">
    <path d="M 225.81273 162.252 
L 233.171072 162.252 
L 233.171072 155.830541 
L 225.81273 155.830541 
z
" clip-path="url(#pbae68af783)" style="fill: #00adef"/>
   </g>
   <g id="patch_43">
    <path d="M 233.171072 162.252 
L 240.529414 162.252 
L 240.529414 136.107487 
L 233.171072 136.107487 
z
" clip-path="url(#pbae68af783)" style="fill: #00adef"/>
   </g>
   <g id="patch_44">
    <path d="M 240.529414 162.252 
L 247.887756 162.252 
L 247.887756 126.819305 
L 240.529414 126.819305 
z
" clip-path="url(#pbae68af783)" style="fill: #00adef"/>
   </g>
   <g id="patch_45">
    <path d="M 247.887756 162.252 
L 255.246097 162.252 
L 255.246097 135.190136 
L 247.887756 135.190136 
z
" clip-path="url(#pbae68af783)" style="fill: #00adef"/>
   </g>
   <g id="patch_46">
    <path d="M 255.246097 162.252 
L 262.604439 162.252 
L 262.604439 148.606399 
L 255.246097 148.606399 
z
" clip-path="url(#pbae68af783)" style="fill: #00adef"/>
   </g>
   <g id="patch_47">
    <path d="M 262.604439 162.252 
L 269.962781 162.252 
L 269.962781 157.321237 
L 262.604439 157.321237 
z
" clip-path="url(#pbae68af783)" style="fill: #00adef"/>
   </g>
   <g id="patch_48">
    <path d="M 269.962781 162.252 
L 277.321123 162.252 
L 277.321123 159.385277 
L 269.962781 159.385277 
z
" clip-path="url(#pbae68af783)" style="fill: #00adef"/>
   </g>
   <g id="patch_49">
    <path d="M 277.321123 162.252 
L 284.679465 162.252 
L 284.679465 161.907993 
L 277.321123 161.907993 
z
" clip-path="url(#pbae68af783)" style="fill: #00adef"/>
   </g>
   <g id="patch_50">
    <path d="M 284.679465 162.252 
L 292.037807 162.252 
L 292.037807 162.022662 
L 284.679465 162.022662 
z
" clip-path="url(#pbae68af783)" style="fill: #00adef"/>
   </g>
   <g id="patch_51">
    <path d="M 292.037807 162.252 
L 299.396149 162.252 
L 299.396149 161.907993 
L 292.037807 161.907993 
z
" clip-path="url(#pbae68af783)" style="fill: #00adef"/>
   </g>
   <g id="line2d_29">
    <path d="M 224.220646 162.252 
L 224.220646 125.04767 
" clip-path="url(#pbae68af783)" style="fill: none; stroke: #006646; stroke-linecap: square"/>
   </g>
   <g id="patch_52">
    <path d="M 195.204483 162.252 
L 195.204483 125.04767 
" style="fill: none; stroke: #161616; stroke-width: 0.8; stroke-linejoin: miter; stroke-linecap: square"/>
   </g>
   <g id="patch_53">
    <path d="M 195.204483 162.252 
L 303.07532 162.252 
" style="fill: none; stroke: #161616; stroke-width: 0.8; stroke-linejoin: miter; stroke-linecap: square"/>
   </g>
   <g id="text_37">
    <!-- d -->
    <g transform="translate(195.204483 120.407574)scale(0.08 -0.08)">
     <defs>
      <path id="DejaVuSans-Bold-64" d="M 2919 2988 
L 2919 4863 
L 4044 4863 
L 4044 0 
L 2919 0 
L 2919 506 
Q 2688 197 2409 53 
Q 2131 -91 1766 -91 
Q 1119 -91 703 423 
Q 288 938 288 1747 
Q 288 2556 703 3070 
Q 1119 3584 1766 3584 
Q 2128 3584 2408 3439 
Q 2688 3294 2919 2988 
z
M 2181 722 
Q 2541 722 2730 984 
Q 2919 1247 2919 1747 
Q 2919 2247 2730 2509 
Q 2541 2772 2181 2772 
Q 1825 2772 1636 2509 
Q 1447 2247 1447 1747 
Q 1447 1247 1636 984 
Q 1825 722 2181 722 
z
" transform="scale(0.015625)"/>
     </defs>
     <use xlink:href="#DejaVuSans-Bold-64"/>
    </g>
   </g>
  </g>
  <g id="legend_1">
   <g id="line2d_30">
    <path d="M 32.02875 15.85625 
L 40.02875 15.85625 
L 48.02875 15.85625 
" style="fill: none; stroke: #99be00; stroke-linecap: square"/>
   </g>
   <g id="text_38">
    <!-- True $D$ -->
    <g transform="translate(54.42875 18.65625)scale(0.08 -0.08)">
     <defs>
      <path id="DejaVuSans-54" d="M -19 4666 
L 3928 4666 
L 3928 4134 
L 2272 4134 
L 2272 0 
L 1638 0 
L 1638 4134 
L -19 4134 
L -19 4666 
z
" transform="scale(0.015625)"/>
      <path id="DejaVuSans-72" d="M 2631 2963 
Q 2534 3019 2420 3045 
Q 2306 3072 2169 3072 
Q 1681 3072 1420 2755 
Q 1159 2438 1159 1844 
L 1159 0 
L 581 0 
L 581 3500 
L 1159 3500 
L 1159 2956 
Q 1341 3275 1631 3429 
Q 1922 3584 2338 3584 
Q 2397 3584 2469 3576 
Q 2541 3569 2628 3553 
L 2631 2963 
z
" transform="scale(0.015625)"/>
      <path id="DejaVuSans-75" d="M 544 1381 
L 544 3500 
L 1119 3500 
L 1119 1403 
Q 1119 906 1312 657 
Q 1506 409 1894 409 
Q 2359 409 2629 706 
Q 2900 1003 2900 1516 
L 2900 3500 
L 3475 3500 
L 3475 0 
L 2900 0 
L 2900 538 
Q 2691 219 2414 64 
Q 2138 -91 1772 -91 
Q 1169 -91 856 284 
Q 544 659 544 1381 
z
M 1991 3584 
L 1991 3584 
z
" transform="scale(0.015625)"/>
      <path id="DejaVuSans-65" d="M 3597 1894 
L 3597 1613 
L 953 1613 
Q 991 1019 1311 708 
Q 1631 397 2203 397 
Q 2534 397 2845 478 
Q 3156 559 3463 722 
L 3463 178 
Q 3153 47 2828 -22 
Q 2503 -91 2169 -91 
Q 1331 -91 842 396 
Q 353 884 353 1716 
Q 353 2575 817 3079 
Q 1281 3584 2069 3584 
Q 2775 3584 3186 3129 
Q 3597 2675 3597 1894 
z
M 3022 2063 
Q 3016 2534 2758 2815 
Q 2500 3097 2075 3097 
Q 1594 3097 1305 2825 
Q 1016 2553 972 2059 
L 3022 2063 
z
" transform="scale(0.015625)"/>
      <path id="DejaVuSans-20" transform="scale(0.015625)"/>
     </defs>
     <use xlink:href="#DejaVuSans-54" transform="translate(0 0.09375)"/>
     <use xlink:href="#DejaVuSans-72" transform="translate(61.083984 0.09375)"/>
     <use xlink:href="#DejaVuSans-75" transform="translate(102.197266 0.09375)"/>
     <use xlink:href="#DejaVuSans-65" transform="translate(165.576172 0.09375)"/>
     <use xlink:href="#DejaVuSans-20" transform="translate(227.099609 0.09375)"/>
     <use xlink:href="#DejaVuSans-Oblique-44" transform="translate(258.886719 0.09375)"/>
    </g>
   </g>
   <g id="line2d_31">
    <path d="M 97.30875 15.85625 
L 105.30875 15.85625 
L 113.30875 15.85625 
" style="fill: none; stroke: #006646; stroke-linecap: square"/>
   </g>
   <g id="text_39">
    <!-- Numerical $\sigma^2(\hat{D})$ -->
    <g transform="translate(119.70875 18.65625)scale(0.08 -0.08)">
     <defs>
      <path id="DejaVuSans-4e" d="M 628 4666 
L 1478 4666 
L 3547 763 
L 3547 4666 
L 4159 4666 
L 4159 0 
L 3309 0 
L 1241 3903 
L 1241 0 
L 628 0 
L 628 4666 
z
" transform="scale(0.015625)"/>
      <path id="DejaVuSans-69" d="M 603 3500 
L 1178 3500 
L 1178 0 
L 603 0 
L 603 3500 
z
M 603 4863 
L 1178 4863 
L 1178 4134 
L 603 4134 
L 603 4863 
z
" transform="scale(0.015625)"/>
      <path id="DejaVuSans-63" d="M 3122 3366 
L 3122 2828 
Q 2878 2963 2633 3030 
Q 2388 3097 2138 3097 
Q 1578 3097 1268 2742 
Q 959 2388 959 1747 
Q 959 1106 1268 751 
Q 1578 397 2138 397 
Q 2388 397 2633 464 
Q 2878 531 3122 666 
L 3122 134 
Q 2881 22 2623 -34 
Q 2366 -91 2075 -91 
Q 1284 -91 818 406 
Q 353 903 353 1747 
Q 353 2603 823 3093 
Q 1294 3584 2113 3584 
Q 2378 3584 2631 3529 
Q 2884 3475 3122 3366 
z
" transform="scale(0.015625)"/>
      <path id="DejaVuSans-61" d="M 2194 1759 
Q 1497 1759 1228 1600 
Q 959 1441 959 1056 
Q 959 750 1161 570 
Q 1363 391 1709 391 
Q 2188 391 2477 730 
Q 2766 1069 2766 1631 
L 2766 1759 
L 2194 1759 
z
M 3341 1997 
L 3341 0 
L 2766 0 
L 2766 531 
Q 2569 213 2275 61 
Q 1981 -91 1556 -91 
Q 1019 -91 701 211 
Q 384 513 384 1019 
Q 384 1609 779 1909 
Q 1175 2209 1959 2209 
L 2766 2209 
L 2766 2266 
Q 2766 2663 2505 2880 
Q 2244 3097 1772 3097 
Q 1472 3097 1187 3025 
Q 903 2953 641 2809 
L 641 3341 
Q 956 3463 1253 3523 
Q 1550 3584 1831 3584 
Q 2591 3584 2966 3190 
Q 3341 2797 3341 1997 
z
" transform="scale(0.015625)"/>
      <path id="DejaVuSans-6c" d="M 603 4863 
L 1178 4863 
L 1178 0 
L 603 0 
L 603 4863 
z
" transform="scale(0.015625)"/>
     </defs>
     <use xlink:href="#DejaVuSans-4e" transform="translate(0 0.609375)"/>
     <use xlink:href="#DejaVuSans-75" transform="translate(74.804688 0.609375)"/>
     <use xlink:href="#DejaVuSans-6d" transform="translate(138.183594 0.609375)"/>
     <use xlink:href="#DejaVuSans-65" transform="translate(235.595703 0.609375)"/>
     <use xlink:href="#DejaVuSans-72" transform="translate(297.119141 0.609375)"/>
     <use xlink:href="#DejaVuSans-69" transform="translate(338.232422 0.609375)"/>
     <use xlink:href="#DejaVuSans-63" transform="translate(366.015625 0.609375)"/>
     <use xlink:href="#DejaVuSans-61" transform="translate(420.996094 0.609375)"/>
     <use xlink:href="#DejaVuSans-6c" transform="translate(482.275391 0.609375)"/>
     <use xlink:href="#DejaVuSans-20" transform="translate(510.058594 0.609375)"/>
     <use xlink:href="#DejaVuSans-Oblique-3c3" transform="translate(541.845703 0.609375)"/>
     <use xlink:href="#DejaVuSans-32" transform="translate(609.697318 38.890625)scale(0.7)"/>
     <use xlink:href="#DejaVuSans-28" transform="translate(656.967826 0.609375)"/>
     <use xlink:href="#DejaVuSans-302" transform="translate(768.810111 30.015625)"/>
     <use xlink:href="#DejaVuSans-Oblique-44" transform="translate(695.981497 0.609375)"/>
     <use xlink:href="#DejaVuSans-29" transform="translate(772.983451 0.609375)"/>
    </g>
   </g>
   <g id="patch_54">
    <path d="M 200.66875 18.65625 
L 216.66875 18.65625 
L 216.66875 13.05625 
L 200.66875 13.05625 
z
" style="fill: #00adef"/>
   </g>
   <g id="text_40">
    <!-- Bootstrap-GP -->
    <g transform="translate(223.06875 18.65625)scale(0.08 -0.08)">
     <defs>
      <path id="DejaVuSans-42" d="M 1259 2228 
L 1259 519 
L 2272 519 
Q 2781 519 3026 730 
Q 3272 941 3272 1375 
Q 3272 1813 3026 2020 
Q 2781 2228 2272 2228 
L 1259 2228 
z
M 1259 4147 
L 1259 2741 
L 2194 2741 
Q 2656 2741 2882 2914 
Q 3109 3088 3109 3444 
Q 3109 3797 2882 3972 
Q 2656 4147 2194 4147 
L 1259 4147 
z
M 628 4666 
L 2241 4666 
Q 2963 4666 3353 4366 
Q 3744 4066 3744 3513 
Q 3744 3084 3544 2831 
Q 3344 2578 2956 2516 
Q 3422 2416 3680 2098 
Q 3938 1781 3938 1306 
Q 3938 681 3513 340 
Q 3088 0 2303 0 
L 628 0 
L 628 4666 
z
" transform="scale(0.015625)"/>
      <path id="DejaVuSans-6f" d="M 1959 3097 
Q 1497 3097 1228 2736 
Q 959 2375 959 1747 
Q 959 1119 1226 758 
Q 1494 397 1959 397 
Q 2419 397 2687 759 
Q 2956 1122 2956 1747 
Q 2956 2369 2687 2733 
Q 2419 3097 1959 3097 
z
M 1959 3584 
Q 2709 3584 3137 3096 
Q 3566 2609 3566 1747 
Q 3566 888 3137 398 
Q 2709 -91 1959 -91 
Q 1206 -91 779 398 
Q 353 888 353 1747 
Q 353 2609 779 3096 
Q 1206 3584 1959 3584 
z
" transform="scale(0.015625)"/>
      <path id="DejaVuSans-74" d="M 1172 4494 
L 1172 3500 
L 2356 3500 
L 2356 3053 
L 1172 3053 
L 1172 1153 
Q 1172 725 1289 603 
Q 1406 481 1766 481 
L 2356 481 
L 2356 0 
L 1766 0 
Q 1100 0 847 248 
Q 594 497 594 1153 
L 594 3053 
L 172 3053 
L 172 3500 
L 594 3500 
L 594 4494 
L 1172 4494 
z
" transform="scale(0.015625)"/>
      <path id="DejaVuSans-70" d="M 1159 525 
L 1159 -1331 
L 581 -1331 
L 581 3500 
L 1159 3500 
L 1159 2969 
Q 1341 3281 1617 3432 
Q 1894 3584 2278 3584 
Q 2916 3584 3314 3078 
Q 3713 2572 3713 1747 
Q 3713 922 3314 415 
Q 2916 -91 2278 -91 
Q 1894 -91 1617 61 
Q 1341 213 1159 525 
z
M 3116 1747 
Q 3116 2381 2855 2742 
Q 2594 3103 2138 3103 
Q 1681 3103 1420 2742 
Q 1159 2381 1159 1747 
Q 1159 1113 1420 752 
Q 1681 391 2138 391 
Q 2594 391 2855 752 
Q 3116 1113 3116 1747 
z
" transform="scale(0.015625)"/>
      <path id="DejaVuSans-2d" d="M 313 2009 
L 1997 2009 
L 1997 1497 
L 313 1497 
L 313 2009 
z
" transform="scale(0.015625)"/>
      <path id="DejaVuSans-47" d="M 3809 666 
L 3809 1919 
L 2778 1919 
L 2778 2438 
L 4434 2438 
L 4434 434 
Q 4069 175 3628 42 
Q 3188 -91 2688 -91 
Q 1594 -91 976 548 
Q 359 1188 359 2328 
Q 359 3472 976 4111 
Q 1594 4750 2688 4750 
Q 3144 4750 3555 4637 
Q 3966 4525 4313 4306 
L 4313 3634 
Q 3963 3931 3569 4081 
Q 3175 4231 2741 4231 
Q 1884 4231 1454 3753 
Q 1025 3275 1025 2328 
Q 1025 1384 1454 906 
Q 1884 428 2741 428 
Q 3075 428 3337 486 
Q 3600 544 3809 666 
z
" transform="scale(0.015625)"/>
      <path id="DejaVuSans-50" d="M 1259 4147 
L 1259 2394 
L 2053 2394 
Q 2494 2394 2734 2622 
Q 2975 2850 2975 3272 
Q 2975 3691 2734 3919 
Q 2494 4147 2053 4147 
L 1259 4147 
z
M 628 4666 
L 2053 4666 
Q 2838 4666 3239 4311 
Q 3641 3956 3641 3272 
Q 3641 2581 3239 2228 
Q 2838 1875 2053 1875 
L 1259 1875 
L 1259 0 
L 628 0 
L 628 4666 
z
" transform="scale(0.015625)"/>
     </defs>
     <use xlink:href="#DejaVuSans-42"/>
     <use xlink:href="#DejaVuSans-6f" x="68.603516"/>
     <use xlink:href="#DejaVuSans-6f" x="129.785156"/>
     <use xlink:href="#DejaVuSans-74" x="190.966797"/>
     <use xlink:href="#DejaVuSans-73" x="230.175781"/>
     <use xlink:href="#DejaVuSans-74" x="282.275391"/>
     <use xlink:href="#DejaVuSans-72" x="321.484375"/>
     <use xlink:href="#DejaVuSans-61" x="362.597656"/>
     <use xlink:href="#DejaVuSans-70" x="423.876953"/>
     <use xlink:href="#DejaVuSans-2d" x="487.353516"/>
     <use xlink:href="#DejaVuSans-47" x="527.0625"/>
     <use xlink:href="#DejaVuSans-50" x="604.552734"/>
    </g>
   </g>
  </g>
 </g>
 <defs>
  <clipPath id="pf22ce01569">
   <rect x="38.9025" y="35.91392" width="107.870837" height="37.20433"/>
  </clipPath>
  <clipPath id="p1378de9c67">
   <rect x="38.9025" y="125.04767" width="107.870837" height="37.20433"/>
  </clipPath>
  <clipPath id="p7944bbbf85">
   <rect x="195.204483" y="35.91392" width="107.870837" height="37.20433"/>
  </clipPath>
  <clipPath id="pbae68af783">
   <rect x="195.204483" y="125.04767" width="107.870837" height="37.20433"/>
  </clipPath>
 </defs>
</svg>
